<svg width="20" height="20" viewBox="0 0 20 20" fill="none" xmlns="http://www.w3.org/2000/svg">
<g clip-path="url(#clip0_45_8)">
<path d="M1.77624 3.21241C2.21039 2.41648 2.82 1.78772 3.59913 1.3339C4.38599 0.859063 5.28349 0.62793 6.27647 0.62793C7.28402 0.62793 8.19014 0.858269 8.97836 1.3339C9.75747 1.78772 10.3671 2.41649 10.8012 3.21241C11.2365 4.0104 11.4495 4.90156 11.4495 5.87469V14.4444C11.4495 14.805 11.5352 15.1204 11.7016 15.4018C11.8752 15.6956 12.0975 15.9236 12.3706 16.0936C12.6567 16.2617 12.9554 16.3431 13.2746 16.3431C13.5952 16.3431 13.8835 16.2611 14.1499 16.0962C14.4214 15.9281 14.6334 15.704 14.7904 15.4162L14.7944 15.4089L14.7986 15.4018C14.9649 15.1204 15.0506 14.805 15.0506 14.4444V1.40569V0.922591H15.5337H17.891H18.374V1.40569V14.1251C18.374 15.0982 18.161 15.9894 17.7257 16.7874C17.2934 17.5801 16.6951 18.2153 15.9353 18.6857L15.9317 18.6879L15.9281 18.69C15.1555 19.15 14.2654 19.3719 13.2746 19.3719C12.2836 19.3719 11.3875 19.1499 10.6009 18.6926L10.5951 18.6892L10.5894 18.6857C9.82958 18.2153 9.2313 17.5801 8.79897 16.7874C8.36369 15.9894 8.15064 15.0982 8.15064 14.1251V5.55547C8.15064 5.19485 8.06491 4.87948 7.89864 4.59804C7.72725 4.30806 7.4993 4.08011 7.20936 3.90876C6.92497 3.74074 6.61719 3.65673 6.27647 3.65673C5.93742 3.65673 5.63103 3.73989 5.34787 3.90624C5.07704 4.07481 4.85611 4.30053 4.68314 4.59084C4.53093 4.87279 4.45139 5.191 4.45139 5.55547V18.5941V19.0772H3.9683H1.61102H1.12793V18.5941V5.87469C1.12793 4.90156 1.34097 4.0104 1.77624 3.21241ZM1.77624 3.21241L2.19263 3.43954" stroke="url(#paint0_linear_45_8)" stroke-width="0.966183"/>
</g>
<defs>
<linearGradient id="paint0_linear_45_8" x1="19.4674" y1="0.177949" x2="0.539629" y2="20.1289" gradientUnits="userSpaceOnUse">
<stop stop-color="#5EEAD4"/>
<stop offset="1" stop-color="#0D9488"/>
</linearGradient>
<clipPath id="clip0_45_8">
<rect width="18.8889" height="20" fill="white" transform="translate(0.5)"/>
</clipPath>
</defs>
</svg>
